<svg xmlns="http://www.w3.org/2000/svg" viewBox="0 0 17.473 17.473"><g data-name="Group 5"><g data-name="Group 4"><path data-name="Path 3" d="M12.752 0H4.721A4.727 4.727 0 0 0 0 4.721v8.031a4.727 4.727 0 0 0 4.721 4.721h8.031a4.727 4.727 0 0 0 4.721-4.721V4.721A4.727 4.727 0 0 0 12.752 0zm3.31 12.752a3.313 3.313 0 0 1-3.31 3.31H4.721a3.313 3.313 0 0 1-3.31-3.31V4.721a3.313 3.313 0 0 1 3.31-3.31h8.031a3.313 3.313 0 0 1 3.31 3.31z" fill="#fff"/></g></g><g data-name="Group 7"><g data-name="Group 6"><path data-name="Path 4" d="M12.646 8.128a3.918 3.918 0 1 0-3.884 4.494 3.973 3.973 0 0 0 .583-.043 3.918 3.918 0 0 0 3.3-4.45zm-3.508 3.054a2.506 2.506 0 1 1 2.112-2.847 2.489 2.489 0 0 1-2.112 2.847z" fill="#fff"/></g></g><g data-name="Group 9"><g data-name="Group 8"><path data-name="Path 5" d="M13.653 3.821a.706.706 0 1 0 .207.5.711.711 0 0 0-.207-.5z" fill="#fff"/></g></g></svg>