<svg xmlns="http://www.w3.org/2000/svg" viewBox="0 0 18.688 17.071"><g data-name="Group 10" fill="#fff"><path data-name="Path 6" d="M.607 17.071h2.429a.607.607 0 0 0 .607-.607V5.845a.607.607 0 0 0-.607-.607H.607A.607.607 0 0 0 0 5.845v10.619a.607.607 0 0 0 .607.607z"/><path data-name="Path 7" d="M.607 3.371h2.429a.607.607 0 0 0 .607-.607V.607A.607.607 0 0 0 3.036 0H.607A.607.607 0 0 0 0 .607v2.157a.607.607 0 0 0 .607.607z"/><path data-name="Path 8" d="M17.774 6.47a3.694 3.694 0 0 0-1.51-1.109 5.469 5.469 0 0 0-2.2-.434 5.4 5.4 0 0 0-4.148 1.869c-.226.248-.39.194-.39-.142v-.809a.607.607 0 0 0-.607-.607h-2.17a.607.607 0 0 0-.607.607v10.619a.607.607 0 0 0 .607.607h2.429a.607.607 0 0 0 .607-.607v-3.693a11.881 11.881 0 0 1 .279-3.164 2.613 2.613 0 0 1 1.031-1.374 2.922 2.922 0 0 1 1.7-.519 2.168 2.168 0 0 1 1.264.363 2.023 2.023 0 0 1 .759 1.018 10.858 10.858 0 0 1 .233 2.885v4.484a.607.607 0 0 0 .607.607h2.429a.607.607 0 0 0 .607-.607V10.45a11.389 11.389 0 0 0-.2-2.45 4.013 4.013 0 0 0-.72-1.53z"/></g></svg>