<svg xmlns="http://www.w3.org/2000/svg" viewBox="0 0 17.607 17.607"><g data-name="shopping-cart"><path data-name="Path 10" d="M5.282 14.086a1.761 1.761 0 1 0 1.761 1.761 1.766 1.766 0 0 0-1.761-1.761zM0 0v1.761h1.761L4.93 8.452 3.7 10.564a3.128 3.128 0 0 0-.176.88 1.766 1.766 0 0 0 1.761 1.761h10.562v-1.76H5.634a.189.189 0 0 1-.176-.176v-.088l.792-1.5h6.515a1.606 1.606 0 0 0 1.5-.88l3.169-5.722a.485.485 0 0 0 .176-.44.832.832 0 0 0-.88-.88H3.7L2.905 0zm14.086 14.086a1.761 1.761 0 1 0 1.761 1.761 1.766 1.766 0 0 0-1.761-1.761z" fill="#fff"/></g></svg>