<svg xmlns="http://www.w3.org/2000/svg" viewBox="0 0 19.275 15.661"><g data-name="Group 11"><path data-name="Path 9" d="M19.275 1.854A8.239 8.239 0 0 1 17 2.478 3.929 3.929 0 0 0 18.738.294a7.9 7.9 0 0 1-2.506.957 3.951 3.951 0 0 0-6.835 2.7 4.069 4.069 0 0 0 .092.9A11.185 11.185 0 0 1 1.342.72 3.953 3.953 0 0 0 2.556 6a3.9 3.9 0 0 1-1.785-.487v.043a3.97 3.97 0 0 0 3.166 3.883 3.944 3.944 0 0 1-1.036.13 3.494 3.494 0 0 1-.748-.067 3.989 3.989 0 0 0 3.692 2.753 7.94 7.94 0 0 1-4.9 1.685A7.4 7.4 0 0 1 0 13.887a11.125 11.125 0 0 0 6.062 1.773A11.169 11.169 0 0 0 17.309 4.416c0-.175-.006-.343-.014-.511a7.883 7.883 0 0 0 1.98-2.051z" fill="#fff"/></g></svg>